<?xml version="1.0" encoding="UTF-8"?>
<svg id="Camada_2" data-name="Camada 2" xmlns="http://www.w3.org/2000/svg" viewBox="0 0 178.37 195.1">
  <defs>
    <style>
      .cls-1 {
        fill: #fff;
      }

      .cls-2 {
        fill: #ff2b5d;
      }

      .cls-3 {
        fill: #b10061;
      }
    </style>
  </defs>
  <g id="Camada_1-2" data-name="Camada 1">
    <g>
      <rect y="16.73" width="178.37" height="178.37"/>
      <polygon class="cls-3" points="0 16.73 9.26 0 21.05 16.73 0 16.73"/>
      <polygon class="cls-2" points="178.11 0 9.26 0 99.01 163.52 178.11 0"/>
      <g id="hLFyP5.tif">
        <g>
          <path class="cls-1" d="m80.94,14.49c10.51,0,21.01,0,31.52,0,.2.04.41.09.61.11,1.76.19,3.49.58,5.09,1.34,6.93,3.28,10.67,8.77,10.78,16.44.13,9.58.04,19.16.03,28.74,0,3.71-1,7.15-3.16,10.18-3.66,5.13-8.69,7.7-14.99,7.72-9.41.02-18.83.02-28.24,0-1.21,0-2.45-.07-3.63-.33-7.31-1.61-11.98-6.06-13.99-13.27-.26-.94-.36-1.93-.53-2.9,0-10.51,0-21.01,0-31.52.11-.66.17-1.33.32-1.98,1.64-7.31,6.07-12,13.3-14.01.94-.26,1.93-.36,2.9-.53Zm-10.79,32.21c0,4.68,0,9.37,0,14.05,0,1.48.15,2.93.65,4.34,1.82,5.11,6.23,8.21,11.77,8.22,9.41.02,18.82.03,28.23-.02,1.41,0,2.87-.2,4.2-.65,5.16-1.74,8.24-6.21,8.25-11.79.01-9.39.03-18.78-.03-28.17,0-1.41-.2-2.88-.64-4.2-1.72-5.14-6.18-8.25-11.71-8.26-9.45-.02-18.91-.02-28.36,0-4.21,0-7.61,1.69-10.1,5.09-1.61,2.19-2.26,4.7-2.26,7.4,0,4.66,0,9.33,0,13.99Z"/>
          <path class="cls-1" d="m113.33,46.78c-.03,9.16-7.57,16.66-16.67,16.61-9.17-.05-16.66-7.59-16.59-16.69.07-9.16,7.53-16.59,16.64-16.58,9.15.01,16.66,7.54,16.62,16.66Zm-5.74-.03c-.01-6.01-4.9-10.9-10.9-10.89-6.01.01-10.9,4.9-10.89,10.9.01,6.01,4.9,10.9,10.9,10.89,6.01-.01,10.9-4.9,10.89-10.9Z"/>
          <path class="cls-1" d="m114.01,33.66c-2.28-.01-4.17-1.9-4.18-4.18-.01-2.3,1.91-4.21,4.22-4.19,2.3.02,4.17,1.88,4.18,4.17.01,2.29-1.91,4.21-4.22,4.19Z"/>
        </g>
      </g>
    </g>
  </g>
</svg>