<?xml version="1.0" encoding="UTF-8"?>
<svg id="Camada_2" data-name="Camada 2" xmlns="http://www.w3.org/2000/svg" viewBox="0 0 178.37 195.1">
  <defs>
    <style>
      .cls-1 {
        fill: #0079bc;
      }

      .cls-2 {
        fill: #fff;
      }

      .cls-3 {
        fill: #07476e;
      }
    </style>
  </defs>
  <g id="Camada_1-2" data-name="Camada 1">
    <g>
      <rect y="16.73" width="178.37" height="178.37"/>
      <polygon class="cls-3" points="0 16.73 9.26 0 21.05 16.73 0 16.73"/>
      <polygon class="cls-1" points="178.11 0 9.26 0 99.01 163.52 178.11 0"/>
      <g>
        <path d="m102.06,40.41c0-.72,0-1.54,0-2.35,0-1.5-.83-2.33-2.33-2.33-2.89,0-5.77,0-8.66,0-1.7,0-2.52.8-2.52,2.48,0,12.44,0,24.88,0,37.32,0,1.67.85,2.53,2.5,2.53,2.83,0,5.67,0,8.5,0,1.68,0,2.5-.82,2.5-2.51,0-6.4,0-12.81,0-19.21,0-2.16.48-4.22,1.5-6.12,1.37-2.55,3.57-3.68,6.43-3.49,2.72.18,4.53,1.62,5.46,4.16.65,1.77.79,3.63.79,5.49,0,4.93-.03,9.87-.05,14.8,0,1.52-.03,3.05.03,4.57.07,1.59.87,2.3,2.46,2.3,2.91,0,5.83,0,8.74,0,1.77,0,2.63-.83,2.63-2.58-.03-7.58-.04-15.17-.15-22.75-.05-3.09-.52-6.15-1.69-9.06-1.54-3.84-4.11-6.57-8.15-7.82-2.55-.79-5.16-.9-7.78-.69-2.47.2-4.89.76-6.92,2.29-1.18.89-2.21,1.97-3.3,2.96Z"/>
        <path d="m69.33,56.9c0,6.17,0,12.34,0,18.5,0,1.8.84,2.65,2.64,2.65,2.65,0,5.3,0,7.95,0,2.09,0,2.91-.82,2.91-2.9,0-7.19,0-14.38,0-21.57,0-5.07,0-10.13,0-15.2,0-1.8-.87-2.66-2.64-2.66-2.76,0-5.51,0-8.27,0-1.77,0-2.59.82-2.59,2.59,0,6.19,0,12.39,0,18.58Z"/>
        <path d="m84.74,23.67c0-4.79-3.91-8.75-8.68-8.71-4.72.04-8.64,3.65-8.69,8.72-.04,4.76,3.93,8.67,8.65,8.69,4.77.02,8.71-3.92,8.72-8.7Z"/>
        <path class="cls-2" d="m102.06,40.41c1.09-.99,2.12-2.07,3.3-2.96,2.03-1.53,4.45-2.08,6.92-2.29,2.62-.21,5.23-.11,7.78.69,4.04,1.25,6.61,3.98,8.15,7.82,1.17,2.91,1.64,5.96,1.69,9.06.12,7.58.12,15.16.15,22.75,0,1.75-.86,2.58-2.63,2.58-2.91,0-5.83,0-8.74,0-1.59,0-2.4-.72-2.46-2.3-.06-1.52-.04-3.04-.03-4.57.01-4.93.06-9.87.05-14.8,0-1.86-.15-3.72-.79-5.49-.93-2.54-2.74-3.98-5.46-4.16-2.86-.19-5.06.93-6.43,3.49-1.02,1.9-1.5,3.96-1.5,6.12,0,6.4,0,12.81,0,19.21,0,1.68-.82,2.51-2.5,2.51-2.83,0-5.67,0-8.5,0-1.65,0-2.5-.86-2.5-2.53,0-12.44,0-24.88,0-37.32,0-1.68.81-2.48,2.52-2.48,2.89,0,5.77,0,8.66,0,1.5,0,2.32.83,2.33,2.33,0,.81,0,1.63,0,2.35Z"/>
        <path class="cls-2" d="m69.33,56.9c0-6.19,0-12.39,0-18.58,0-1.77.82-2.59,2.59-2.59,2.76,0,5.51,0,8.27,0,1.78,0,2.64.86,2.64,2.66,0,5.07,0,10.13,0,15.2,0,7.19,0,14.38,0,21.57,0,2.08-.82,2.9-2.91,2.9-2.65,0-5.3,0-7.95,0-1.8,0-2.64-.85-2.64-2.65,0-6.17,0-12.34,0-18.5Z"/>
        <path class="cls-2" d="m84.74,23.67c0,4.78-3.95,8.72-8.72,8.7-4.72-.02-8.7-3.94-8.65-8.69.05-5.07,3.96-8.67,8.69-8.72,4.78-.04,8.69,3.92,8.68,8.71Z"/>
      </g>
    </g>
  </g>
</svg>