<svg width="32" height="20" viewBox="0 0 32 20" fill="none" xmlns="http://www.w3.org/2000/svg">
<rect width="32" height="20" fill="#128807"/>
<path d="M28.5701 9.78L16.0751 18.56L3.57959 9.78L16.0751 1L28.5701 9.78Z" fill="#F9CB38"/>
<path fill-rule="evenodd" clip-rule="evenodd" d="M21.005 11.309C20.436 13.2425 18.6555 14.7145 16.6395 14.9145C13.946 15.184 11.5895 13.472 11.0165 10.8255C10.847 10.0478 10.8686 9.24054 11.0795 8.473C11.158 8.388 11.2665 8.3675 11.3745 8.3525C12.1623 8.24312 12.9587 8.20847 13.753 8.249C14.6005 8.297 15.441 8.4145 16.258 8.6455C17.0965 8.883 17.9085 9.193 18.675 9.605C19.2518 9.91147 19.8028 10.2643 20.3225 10.66C20.4985 10.7965 20.678 10.9305 20.847 11.076C20.9225 11.141 20.9815 11.211 21.0045 11.309" fill="#002776"/>
<path fill-rule="evenodd" clip-rule="evenodd" d="M11.3618 7.69051C12.0073 6.24801 13.0958 5.28751 14.6003 4.83651C17.6303 3.92801 20.7388 5.93051 21.1893 9.05351C21.2593 9.53601 21.2623 10.02 21.1883 10.5035C21.1118 10.532 21.0548 10.4915 21.0023 10.448C20.4532 9.99927 19.8673 9.59753 19.2508 9.24701C18.7761 8.97762 18.2829 8.74236 17.7748 8.54301C17.6848 8.50751 17.5718 8.48901 17.5408 8.36851C17.5733 8.31051 17.6143 8.26001 17.6633 8.21301C17.6808 8.19501 17.7063 8.17751 17.6828 8.14751C17.6748 8.13801 17.6583 8.13801 17.6443 8.13951C17.6068 8.14351 17.6118 8.16951 17.6133 8.19701C17.6163 8.28651 17.5643 8.34401 17.4958 8.39001C17.3743 8.41751 17.2578 8.38101 17.1593 8.32851C16.8773 8.18051 16.5653 8.13001 16.2668 8.04751C15.8013 7.92101 15.3233 7.84951 14.8463 7.77501C14.4656 7.71423 14.0824 7.67052 13.6978 7.64401C13.3478 7.61951 12.9913 7.62301 12.6388 7.64701C12.2543 7.67401 11.8688 7.70101 11.4863 7.74701C11.4623 7.75051 11.4378 7.74705 11.4158 7.73703C11.3937 7.72702 11.375 7.71087 11.3618 7.69051" fill="#002776"/>
<path fill-rule="evenodd" clip-rule="evenodd" d="M17.5451 8.33751C17.5431 8.39851 17.5976 8.39051 17.6306 8.40351C18.9218 8.90579 20.1225 9.61508 21.1856 10.5035C21.1549 10.7778 21.0942 11.0479 21.0046 11.309C20.3791 10.79 19.7386 10.2955 19.0301 9.89151C16.7906 8.61601 14.3926 8.11051 11.8291 8.38151C11.5791 8.40701 11.3291 8.44101 11.0791 8.47151C11.1436 8.20101 11.2256 7.93551 11.3601 7.68951C13.2316 7.43701 15.0706 7.58051 16.8751 8.13901C17.0991 8.20851 17.3126 8.32051 17.5516 8.34151L17.5451 8.33601" fill="#FEFEFE"/>
<path fill-rule="evenodd" clip-rule="evenodd" d="M19.875 11.56C19.7245 11.544 19.888 11.7285 19.736 11.7245C19.6035 11.7225 19.5965 11.6165 19.5315 11.5575C19.5815 11.5055 19.67 11.495 19.698 11.414C19.717 11.4995 19.7975 11.5175 19.875 11.56Z" fill="#D9DFEA"/>
<path fill-rule="evenodd" clip-rule="evenodd" d="M14.197 12.485C14.0555 12.5015 14.174 12.6555 14.0555 12.658C13.936 12.6605 13.8745 12.572 13.8505 12.4805C13.842 12.4545 13.957 12.3965 14.0135 12.3535C14.0205 12.444 14.1145 12.44 14.197 12.485Z" fill="#E9ECF3"/>
<path fill-rule="evenodd" clip-rule="evenodd" d="M16.07 12.2065C15.8735 12.3335 16.032 12.0465 15.9165 12.0745C15.954 12.0145 16.06 12.0285 16.067 11.9365C16.117 11.9885 16.1595 12.0485 16.239 12.0595C16.1255 12.044 16.249 12.296 16.07 12.2065" fill="#EDEFF5"/>
<path fill-rule="evenodd" clip-rule="evenodd" d="M12.0101 8.83751C11.9631 8.92701 11.9276 9.02701 11.7851 8.96701C11.7121 8.93651 11.7901 8.83651 11.7026 8.82701L11.8646 8.68451C11.8756 8.70801 11.8886 8.73051 11.8996 8.75401C11.9126 8.81351 12.0311 8.73451 12.0101 8.83751" fill="#F0F2F6"/>
<path fill-rule="evenodd" clip-rule="evenodd" d="M12.4634 11.01C12.3889 11.0335 12.4424 11.2295 12.2824 11.144C12.2664 11.136 12.1964 11.1745 12.2094 11.152C12.2514 11.07 12.1574 11.03 12.1719 10.9645C12.2594 11.0025 12.2544 10.8425 12.3439 10.8855C12.3504 10.8905 12.3504 10.9105 12.3549 10.9235C12.3644 10.9855 12.4854 10.908 12.4634 11.01Z" fill="#ECEFF4"/>
<path fill-rule="evenodd" clip-rule="evenodd" d="M11.677 11.589C11.5235 11.6425 11.638 11.457 11.55 11.4585C11.591 11.424 11.637 11.3595 11.678 11.362C11.727 11.3645 11.772 11.425 11.817 11.4595C11.75 11.482 11.8205 11.6635 11.677 11.589" fill="#D9DFEA"/>
<path fill-rule="evenodd" clip-rule="evenodd" d="M17.61 13.3585C17.4475 13.4325 17.6055 13.214 17.497 13.2425C17.486 13.159 17.6215 13.2095 17.6045 13.1215L17.751 13.239C17.6915 13.266 17.751 13.436 17.61 13.3585" fill="#D8DEEA"/>
<path fill-rule="evenodd" clip-rule="evenodd" d="M18.6499 13.238C18.5154 13.294 18.5979 13.113 18.5254 13.095C18.5744 13.0635 18.6259 13.03 18.6739 12.9975C18.6779 13.0715 18.7794 13.0445 18.7904 13.11C18.7149 13.1145 18.7934 13.2775 18.6499 13.238" fill="#DCE1EC"/>
<path fill-rule="evenodd" clip-rule="evenodd" d="M19.585 12.565C19.432 12.6425 19.545 12.439 19.4575 12.4475C19.475 12.3825 19.5755 12.407 19.5815 12.332L19.725 12.4395C19.6375 12.437 19.745 12.6515 19.585 12.565" fill="#DCE1EC"/>
<path fill-rule="evenodd" clip-rule="evenodd" d="M13.3915 11.6315C13.2315 11.722 13.336 11.5195 13.262 11.5155C13.2695 11.441 13.3825 11.473 13.3875 11.394C13.4025 11.467 13.4995 11.446 13.5205 11.5115C13.425 11.4975 13.561 11.727 13.3915 11.6315" fill="#D4DAE7"/>
<path fill-rule="evenodd" clip-rule="evenodd" d="M14.0401 10.1125C13.9496 10.1065 14.0656 9.96401 13.9546 9.97301C13.9736 9.89301 14.0591 9.90951 14.1061 9.86801C14.1301 9.91851 14.1981 9.93001 14.2016 10.0025C14.2096 10.135 14.0921 10.0665 14.0401 10.1125" fill="#F2F4F7"/>
<path fill-rule="evenodd" clip-rule="evenodd" d="M16.6749 11.1685C16.5364 11.248 16.6094 11.0705 16.5454 11.051C16.5889 11.015 16.6309 10.9785 16.6749 10.9415C16.6779 11.0155 16.8194 10.999 16.7794 11.056C16.7554 11.09 16.8329 11.2455 16.6749 11.1685Z" fill="#E6E9F1"/>
<path fill-rule="evenodd" clip-rule="evenodd" d="M16.055 10.723C15.897 10.739 16.06 10.5955 15.9575 10.599C15.9975 10.5615 16.036 10.4975 16.081 10.4935C16.12 10.4895 16.165 10.553 16.2075 10.588C16.152 10.6415 16.1605 10.7795 16.055 10.723" fill="#EAEDF3"/>
<path fill-rule="evenodd" clip-rule="evenodd" d="M19.891 11.89C19.9235 11.976 19.9875 11.9875 20.0375 12.018C19.9865 12.0755 19.9665 12.1635 19.8605 12.1635C19.752 12.1645 19.8255 12.082 19.801 12.0435C19.7405 11.9475 19.964 12.0285 19.891 11.89" fill="#E4E8F0"/>
<path fill-rule="evenodd" clip-rule="evenodd" d="M18.7589 13.632C18.7209 13.6885 18.7469 13.7425 18.6459 13.7445C18.5304 13.7465 18.5674 13.662 18.5624 13.636C18.5529 13.593 18.6189 13.552 18.6569 13.5605C18.6899 13.5665 18.7539 13.585 18.7589 13.632Z" fill="#CED5E4"/>
<path fill-rule="evenodd" clip-rule="evenodd" d="M13.357 12.03C13.2745 12.0395 13.343 12.1475 13.2385 12.144C13.143 12.141 13.157 12.0765 13.1465 12.0375C13.13 11.983 13.2105 11.9845 13.2285 11.9435C13.2665 11.97 13.305 11.9965 13.357 12.03" fill="#DAE0EB"/>
<path fill-rule="evenodd" clip-rule="evenodd" d="M18.5352 12.601C18.5707 12.5745 18.6062 12.55 18.6437 12.525C18.6467 12.5805 18.7662 12.5485 18.7262 12.6195C18.7097 12.648 18.7502 12.726 18.6467 12.719C18.5537 12.7125 18.5757 12.6475 18.5352 12.601Z" fill="#D8DEE9"/>
<path fill-rule="evenodd" clip-rule="evenodd" d="M18.1548 12.7725C18.1368 12.871 18.0808 12.887 18.0193 12.8985C17.9148 12.916 17.9933 12.8375 17.9763 12.8075C17.9323 12.7325 18.0433 12.747 18.0563 12.698C18.0853 12.736 18.1518 12.735 18.1548 12.7725Z" fill="#CBD2E3"/>
<path fill-rule="evenodd" clip-rule="evenodd" d="M17.57 9.53C17.535 9.5465 17.5815 9.63 17.5065 9.606C17.4495 9.5865 17.3795 9.5595 17.3845 9.4895C17.3865 9.4625 17.4545 9.44 17.4925 9.4165C17.499 9.467 17.607 9.4505 17.57 9.53Z" fill="#D1D8E6"/>
<path fill-rule="evenodd" clip-rule="evenodd" d="M20.3995 11.723C20.3055 11.76 20.348 11.6825 20.3315 11.66C20.2685 11.5745 20.393 11.587 20.3995 11.536C20.438 11.5615 20.513 11.5905 20.51 11.6125C20.5078 11.6411 20.4954 11.6679 20.4752 11.6882C20.4549 11.7085 20.428 11.7208 20.3995 11.723" fill="#DADFEA"/>
<path fill-rule="evenodd" clip-rule="evenodd" d="M15.5651 10.96C15.5651 11.018 15.6821 10.995 15.6426 11.0675C15.6266 11.097 15.6606 11.176 15.5796 11.1595C15.5181 11.147 15.4561 11.111 15.4541 11.05C15.4541 11.0215 15.5251 10.991 15.5651 10.96Z" fill="#CAD2E2"/>
<path fill-rule="evenodd" clip-rule="evenodd" d="M17.165 12.769C17.119 12.7475 17.117 12.687 17.12 12.658C17.125 12.6195 17.1765 12.5675 17.2205 12.5885C17.2475 12.6015 17.324 12.594 17.3055 12.664C17.2885 12.731 17.2215 12.7405 17.165 12.769Z" fill="#D0D7E5"/>
<path fill-rule="evenodd" clip-rule="evenodd" d="M19.1001 12.681C19.1021 12.6805 19.1371 12.632 19.1766 12.631C19.2051 12.63 19.2341 12.689 19.2646 12.722C19.2236 12.7335 19.2586 12.809 19.1776 12.808C19.1046 12.8065 19.1046 12.7735 19.1001 12.681Z" fill="#EFF2F6"/>
<path fill-rule="evenodd" clip-rule="evenodd" d="M15.883 11.415C15.8695 11.469 15.8695 11.5025 15.8215 11.5015C15.7725 11.5005 15.7485 11.4825 15.7495 11.4325C15.7495 11.393 15.7755 11.3655 15.805 11.368C15.839 11.3705 15.8875 11.38 15.883 11.415" fill="#CCD4E3"/>
<path fill-rule="evenodd" clip-rule="evenodd" d="M12.817 10.637C12.841 10.663 12.8685 10.6835 12.879 10.71C12.888 10.732 12.874 10.7655 12.843 10.769C12.8085 10.772 12.7715 10.771 12.7605 10.728C12.7505 10.686 12.787 10.671 12.817 10.637Z" fill="#E0E5EE"/>
<path fill-rule="evenodd" clip-rule="evenodd" d="M12.4635 11.01C12.45 10.9525 12.361 10.989 12.355 10.923C12.374 10.973 12.5225 10.8615 12.4635 11.01Z" fill="#7085B1"/>
<path fill-rule="evenodd" clip-rule="evenodd" d="M12.0099 8.8375C11.9989 8.776 11.9044 8.8245 11.8994 8.754C11.9259 8.796 12.0599 8.6965 12.0099 8.8375Z" fill="#5C75A7"/>
<path fill-rule="evenodd" clip-rule="evenodd" d="M17.5549 8.34301C17.5644 8.30501 17.5949 8.24301 17.5829 8.23151C17.4199 8.08651 17.6374 8.06201 17.6699 8.03251C17.7294 7.97501 17.7199 8.21751 17.8769 8.06401C17.7924 8.25151 17.6794 8.30551 17.5494 8.33751L17.5549 8.34301Z" fill="#E7EAF2"/>
<path fill-rule="evenodd" clip-rule="evenodd" d="M12.7354 8.18751C12.5764 8.17201 12.7179 7.96501 12.6834 7.84501C12.6404 7.69001 12.7534 7.69201 12.8634 7.69151C13.0339 7.69051 13.1304 7.76251 13.1304 7.94251C13.1299 8.11951 13.0479 8.18951 12.7354 8.18751Z" fill="#15A24A"/>
<path fill-rule="evenodd" clip-rule="evenodd" d="M18.8104 9.18651C18.7754 9.29351 18.6459 9.36051 18.6239 9.49251C18.6219 9.51001 18.5719 9.50651 18.5624 9.45551C18.5224 9.21651 18.5204 9.21701 18.3439 9.34501C18.3299 9.35551 18.3054 9.36501 18.2919 9.36051C18.2659 9.34901 18.2554 9.32301 18.2709 9.29351C18.3294 9.17951 18.3844 9.06251 18.4499 8.95201C18.4939 8.87901 18.5474 8.94001 18.5904 8.96101C18.6849 9.00751 18.8014 9.03401 18.8104 9.18651" fill="#13A248"/>
<path fill-rule="evenodd" clip-rule="evenodd" d="M19.258 9.5755C19.166 9.6125 19.1215 9.543 19.0625 9.518C19.0225 9.501 18.985 9.485 18.958 9.5295C18.9285 9.5765 18.958 9.6035 18.9985 9.6245C19.0295 9.64 19.0625 9.652 19.0855 9.6765C19.126 9.719 19.253 9.7075 19.2015 9.798C19.161 9.87 19.093 9.786 19.048 9.7595C18.9705 9.712 18.817 9.686 18.8335 9.6035C18.859 9.471 18.9345 9.327 19.035 9.236C19.1155 9.163 19.2045 9.301 19.295 9.3355C19.334 9.35 19.4005 9.363 19.389 9.4245C19.378 9.488 19.331 9.451 19.295 9.4425C19.2105 9.423 19.1285 9.28 19.062 9.379C19.022 9.438 19.1865 9.4625 19.2385 9.5275C19.2465 9.537 19.2485 9.55 19.258 9.5755" fill="#11A147"/>
<path fill-rule="evenodd" clip-rule="evenodd" d="M20.3355 10.2825C20.3505 10.3995 20.303 10.479 20.1805 10.459C20.0535 10.438 19.957 10.3605 19.935 10.2215C19.933 10.2075 19.95 10.179 19.964 10.175C19.972 10.1724 19.9806 10.1715 19.989 10.1725C19.9974 10.1736 20.0055 10.1764 20.0127 10.1809C20.0199 10.1854 20.026 10.1914 20.0307 10.1985C20.0353 10.2056 20.0383 10.2136 20.0395 10.222C20.0555 10.3175 20.1055 10.36 20.206 10.362C20.2255 10.2055 19.943 10.134 20.1055 9.97152C20.187 9.89002 20.2865 9.95752 20.3575 10.023C20.423 10.0825 20.503 10.148 20.3835 10.233C20.3665 10.224 20.3435 10.2095 20.331 10.2195C20.3055 10.2365 20.3305 10.261 20.3355 10.2825Z" fill="#11A147"/>
<path fill-rule="evenodd" clip-rule="evenodd" d="M16.882 8.79352C16.8225 8.76002 16.8255 8.72802 16.835 8.69302C16.854 8.61852 16.8155 8.57952 16.7475 8.55852C16.6795 8.53652 16.627 8.53952 16.6085 8.62452C16.602 8.66252 16.582 8.68902 16.5405 8.67502C16.4925 8.65752 16.5165 8.61852 16.5255 8.59002C16.5445 8.52452 16.5615 8.45852 16.5915 8.39602C16.6185 8.33352 16.5995 8.21902 16.698 8.22652C16.8025 8.23402 16.9155 8.25902 16.995 8.34552C17.0305 8.38352 17.045 8.44902 17.016 8.47752C16.9315 8.56452 16.9385 8.68752 16.882 8.79352Z" fill="#0FA046"/>
<path fill-rule="evenodd" clip-rule="evenodd" d="M13.7965 8.157C13.635 8.218 13.5075 8.1825 13.383 8.185C13.3265 8.1865 13.3215 8.144 13.3215 8.101C13.3255 8.0535 13.3255 8.0055 13.3255 7.958C13.3315 7.6945 13.425 7.627 13.684 7.7005C13.713 7.7085 13.7405 7.7135 13.7425 7.746C13.7425 7.791 13.71 7.799 13.67 7.798C13.6645 7.797 13.658 7.7955 13.651 7.7965C13.5735 7.8155 13.4345 7.728 13.432 7.844C13.429 7.933 13.5805 7.87 13.658 7.9C13.669 7.9045 13.681 7.9145 13.698 7.927C13.649 8.0155 13.5675 7.966 13.5045 7.9765C13.467 7.9825 13.418 7.966 13.4125 8.027C13.4055 8.099 13.4555 8.0955 13.5045 8.1005C13.588 8.1105 13.6785 8.079 13.7965 8.157" fill="#0B9F43"/>
<path fill-rule="evenodd" clip-rule="evenodd" d="M12.4689 8.19503C12.3819 8.17603 12.3939 8.12603 12.3789 8.09103C12.3529 8.02653 12.3014 8.02653 12.2449 8.03103C12.1804 8.03703 12.1454 8.06203 12.1509 8.13353C12.1549 8.16853 12.1689 8.22502 12.1039 8.21702C12.0479 8.21002 12.0639 8.15552 12.0609 8.11852C12.0559 8.05802 12.0499 7.99602 12.0559 7.93602C12.0639 7.86902 11.9999 7.76653 12.0964 7.74253C12.1959 7.71653 12.3109 7.69803 12.4144 7.74753C12.4594 7.76903 12.4949 7.82153 12.4784 7.86403C12.4404 7.97103 12.4704 8.07953 12.4689 8.19503" fill="#079D3F"/>
<path fill-rule="evenodd" clip-rule="evenodd" d="M11.4136 8.025C11.4296 7.8895 11.4891 7.7795 11.6376 7.7845C11.7801 7.789 11.8561 7.888 11.8561 8.0305C11.8561 8.172 11.7901 8.2695 11.6396 8.2685C11.4866 8.2675 11.4346 8.1565 11.4136 8.025Z" fill="#15A24A"/>
<path fill-rule="evenodd" clip-rule="evenodd" d="M20.932 10.565C20.918 10.6995 20.8515 10.801 20.698 10.8145C20.5565 10.826 20.4815 10.745 20.4705 10.612C20.458 10.4775 20.59 10.349 20.7245 10.35C20.8425 10.351 20.929 10.4365 20.932 10.565Z" fill="#11A147"/>
<path fill-rule="evenodd" clip-rule="evenodd" d="M18.125 9C18.238 9.091 18.101 9.151 18.096 9.2275C18.002 9.184 17.8845 9.2015 17.8085 9.119C17.7275 9.031 17.7425 8.9315 17.7955 8.8345C17.854 8.732 17.944 8.688 18.0545 8.727C18.1555 8.763 18.231 8.831 18.182 8.959C18.1045 8.973 18.041 8.871 17.932 8.9395C18.0045 8.973 18.0915 8.9265 18.125 9" fill="#0C9F43"/>
<path fill-rule="evenodd" clip-rule="evenodd" d="M15.4048 7.97001C15.3388 8.04751 15.2903 8.01751 15.2448 8.01851C15.2008 8.01851 15.1538 7.98201 15.0993 8.02751C15.1483 8.10751 15.2668 8.05601 15.3128 8.13551C15.3063 8.14701 15.3033 8.16251 15.2948 8.17051C15.2288 8.22251 15.1233 8.09651 15.0823 8.20051C15.0448 8.29001 15.1433 8.25901 15.1858 8.27401C15.2338 8.29301 15.2933 8.28601 15.3513 8.35101C15.2168 8.41001 15.0563 8.38251 15.0008 8.31751C14.9133 8.21501 14.9748 8.03301 15.0413 7.94201C15.1198 7.83451 15.2633 7.93951 15.4048 7.97001" fill="#19A44D"/>
<path fill-rule="evenodd" clip-rule="evenodd" d="M16.2576 8.405C16.1441 8.393 16.0151 8.313 15.9826 8.5C15.9816 8.506 15.9421 8.5145 15.9301 8.5065C15.9166 8.499 15.9091 8.471 15.9116 8.455C15.9411 8.3365 15.9561 8.2095 16.0086 8.103C16.0696 7.983 16.1731 8.0845 16.2586 8.096C16.3606 8.1095 16.4171 8.1715 16.4061 8.279C16.3961 8.3715 16.3261 8.3965 16.2576 8.405" fill="#0D9F44"/>
<path fill-rule="evenodd" clip-rule="evenodd" d="M17.6101 8.69151C17.5991 8.84201 17.5251 8.94601 17.3746 8.95051C17.2401 8.95551 17.1646 8.86101 17.1676 8.72701C17.1716 8.58201 17.2421 8.47701 17.3986 8.47251C17.5421 8.46751 17.5976 8.56401 17.6101 8.69151" fill="#0FA046"/>
<path fill-rule="evenodd" clip-rule="evenodd" d="M14.2394 8.1485C14.2229 8.184 14.2094 8.2345 14.1619 8.223C14.0794 8.2035 14.1164 8.124 14.0964 8.072C14.0354 8.0125 14.0514 8.0945 14.0324 8.1095C14.0254 8.1465 14.0424 8.203 13.9924 8.2105C13.9309 8.218 13.9454 8.159 13.9469 8.124C13.9519 8.051 13.9529 7.9745 13.9729 7.9045C13.9904 7.8445 13.9269 7.734 14.0464 7.733C14.1519 7.7325 14.1289 7.84 14.1424 7.9045C14.1564 7.9785 14.1639 8.01 14.2244 7.9365C14.2869 7.92 14.2999 7.9655 14.3144 8.0095C14.3224 8.0735 14.2939 8.118 14.2394 8.1485" fill="#0EA044"/>
<path fill-rule="evenodd" clip-rule="evenodd" d="M19.5651 9.98501C19.6021 9.98501 19.6396 10.034 19.6756 9.99201C19.7031 9.96051 19.6786 9.92951 19.6541 9.90401C19.6361 9.88451 19.6171 9.86601 19.6001 9.84501C19.5491 9.78351 19.4776 9.72451 19.5481 9.63551C19.6121 9.55401 19.6866 9.57401 19.7606 9.62551C19.7741 9.65151 19.7696 9.67651 19.7556 9.70001C19.7011 9.78551 19.8026 9.83751 19.8006 9.91051C19.8161 9.97901 19.8261 10.048 19.7506 10.0875C19.6566 10.1375 19.5841 10.0915 19.5151 10.0315C19.5076 9.99201 19.5221 9.97251 19.5651 9.98501" fill="#10A146"/>
<path fill-rule="evenodd" clip-rule="evenodd" d="M18.125 9.00001C18.0865 9.02701 18.009 8.93951 18.0115 9.00551C18.0165 9.12251 17.958 9.11201 17.9035 9.07751C17.83 9.03201 17.826 8.95401 17.8725 8.88201C17.9175 8.81151 17.981 8.77051 18.058 8.82801C18.105 8.86251 18.1405 8.91451 18.181 8.95901L18.125 9.00001" fill="#ECF7F0"/>
<path fill-rule="evenodd" clip-rule="evenodd" d="M14.2726 8.03C14.258 7.99913 14.242 7.96893 14.2246 7.9395C14.2421 7.895 14.2581 7.85 14.2791 7.807C14.2981 7.7665 14.3311 7.744 14.3776 7.759C14.4296 7.7765 14.4256 7.8165 14.4226 7.8585C14.4116 7.981 14.4016 8.103 14.3921 8.2255C14.3191 8.272 14.3006 8.2295 14.2886 8.1665C14.2796 8.121 14.3031 8.072 14.2726 8.03Z" fill="#17A34C"/>
<path fill-rule="evenodd" clip-rule="evenodd" d="M19.8018 9.91002C19.7568 9.86402 19.7088 9.82052 19.6668 9.77152C19.6178 9.71352 19.6368 9.67802 19.7098 9.66852C19.8153 9.69202 19.8798 9.74302 19.8488 9.86402C19.8343 9.87902 19.8183 9.89502 19.8018 9.91002" fill="#D7EFE0"/>
<path fill-rule="evenodd" clip-rule="evenodd" d="M19.849 9.864C19.8005 9.801 19.7875 9.711 19.71 9.6685L19.762 9.625C19.846 9.6845 19.9995 9.7185 19.849 9.864Z" fill="#2BAB5B"/>
<path fill-rule="evenodd" clip-rule="evenodd" d="M20.3354 10.2825C20.3289 10.2785 20.3204 10.2765 20.3174 10.271C20.2774 10.197 20.1449 10.1305 20.1899 10.065C20.2464 9.98602 20.3054 10.0795 20.3364 10.147C20.3504 10.1755 20.3674 10.2035 20.3834 10.233C20.3669 10.2495 20.3504 10.266 20.3354 10.2825" fill="#E6F5EC"/>
<path fill-rule="evenodd" clip-rule="evenodd" d="M19.5651 9.98501C19.5491 10.0005 19.5336 10.0165 19.5151 10.032C19.4941 10.017 19.4651 10.0065 19.4516 9.98501C19.4261 9.93651 19.3531 9.87201 19.4376 9.83401C19.5086 9.80001 19.5086 9.89051 19.5316 9.93451C19.5411 9.95301 19.5531 9.96851 19.5651 9.98501Z" fill="#29AA59"/>
<path fill-rule="evenodd" clip-rule="evenodd" d="M14.2725 8.03C14.3455 8.0585 14.307 8.1195 14.308 8.165C14.312 8.2275 14.334 8.2485 14.3925 8.2265C14.2705 8.3445 14.286 8.187 14.239 8.152C14.2515 8.1105 14.261 8.07 14.2725 8.03" fill="#DDF1E4"/>
<path fill-rule="evenodd" clip-rule="evenodd" d="M14.03 8.11001V7.94901C14.099 7.97101 14.101 8.0195 14.094 8.0725C14.073 8.085 14.051 8.09701 14.03 8.11001Z" fill="#6FC690"/>
<path fill-rule="evenodd" clip-rule="evenodd" d="M12.7839 7.94502C12.7909 7.87202 12.7559 7.77702 12.8804 7.78502C12.9714 7.79052 13.0374 7.82702 13.0424 7.93102C13.0474 8.04302 12.9819 8.08852 12.8784 8.09602C12.7469 8.10652 12.8004 8.00302 12.7839 7.94502" fill="#F5FBF7"/>
<path fill-rule="evenodd" clip-rule="evenodd" d="M18.55 9.04499C18.602 9.07349 18.6815 9.07899 18.6985 9.15599C18.707 9.19599 18.6725 9.22249 18.637 9.21099C18.571 9.19099 18.4835 9.18999 18.4745 9.09699C18.472 9.06999 18.501 9.03599 18.55 9.04499Z" fill="#EFF8F3"/>
<path fill-rule="evenodd" clip-rule="evenodd" d="M16.9286 8.43C16.9151 8.482 16.8786 8.5 16.8366 8.4845C16.7801 8.464 16.6891 8.4865 16.6881 8.3875C16.6861 8.336 16.7211 8.3205 16.7681 8.336C16.8301 8.356 16.9051 8.3535 16.9286 8.43Z" fill="#DEF2E5"/>
<path fill-rule="evenodd" clip-rule="evenodd" d="M12.2575 7.81451C12.3065 7.82051 12.384 7.79451 12.379 7.87801C12.374 7.95101 12.3 7.93951 12.247 7.94051C12.2045 7.94201 12.1435 7.96401 12.1395 7.88751C12.1365 7.79651 12.2075 7.82501 12.2575 7.81451" fill="#F3FAF5"/>
<path fill-rule="evenodd" clip-rule="evenodd" d="M11.6251 7.884C11.7156 7.89 11.7606 7.944 11.7641 8.029C11.7691 8.105 11.7316 8.17 11.6536 8.177C11.5636 8.1855 11.5231 8.117 11.5181 8.0335C11.5131 7.9565 11.5431 7.9005 11.6251 7.884" fill="#F3FAF6"/>
<path fill-rule="evenodd" clip-rule="evenodd" d="M20.8325 10.5825C20.8195 10.6655 20.7695 10.724 20.673 10.724C20.5955 10.723 20.5665 10.6665 20.5745 10.598C20.582 10.505 20.6375 10.445 20.732 10.4465C20.8065 10.4485 20.8355 10.502 20.8325 10.5825" fill="#F9FCFA"/>
<path fill-rule="evenodd" clip-rule="evenodd" d="M16.1399 8.159C16.1904 8.19 16.2919 8.158 16.3064 8.258C16.3109 8.296 16.2689 8.3155 16.2354 8.308C16.1699 8.2935 16.0784 8.317 16.0704 8.2115C16.0689 8.179 16.0834 8.144 16.1399 8.159Z" fill="#E7F5EC"/>
<path fill-rule="evenodd" clip-rule="evenodd" d="M17.5102 8.7035C17.5007 8.79 17.4582 8.8505 17.3707 8.8505C17.2847 8.8515 17.2542 8.7915 17.2582 8.7125C17.2652 8.6255 17.3147 8.5675 17.3992 8.564C17.4832 8.561 17.5102 8.628 17.5102 8.7035" fill="#F5FBF7"/>
</svg>
